<svg xmlns="http://www.w3.org/2000/svg" width="1200" height="800" viewBox="0 0 1200 800">
<rect width="1200" height="800" fill="#06080d"/>
<g opacity="0.15" stroke="#14f1c7" stroke-width="1">
  <path d="M0 100 H1200"/><path d="M0 200 H1200"/><path d="M0 300 H1200"/><path d="M0 400 H1200"/><path d="M0 500 H1200"/><path d="M0 600 H1200"/><path d="M0 700 H1200"/>
  <path d="M100 0 V800"/><path d="M200 0 V800"/><path d="M300 0 V800"/><path d="M400 0 V800"/><path d="M500 0 V800"/><path d="M600 0 V800"/><path d="M700 0 V800"/><path d="M800 0 V800"/><path d="M900 0 V800"/><path d="M1000 0 V800"/><path d="M1100 0 V800"/>
</g>
<rect x="120" y="120" width="960" height="560" rx="28" fill="none" stroke="#14f1c7" stroke-width="3"/>
<rect x="160" y="160" width="880" height="480" rx="22" fill="none" stroke="#14f1c7" stroke-width="1.5" opacity="0.7"/>
<text x="600" y="310" fill="#d4fff6" font-family="Consolas, monospace" font-size="66" text-anchor="middle">SYSTEM POSTER // ARES GRID</text>
<text x="600" y="390" fill="#14f1c7" font-family="Consolas, monospace" font-size="28" text-anchor="middle">NEON MOTIF • STATIC SVG SAMPLE</text>
<circle cx="600" cy="520" r="82" fill="none" stroke="#14f1c7" stroke-width="4"/>
<circle cx="600" cy="520" r="52" fill="none" stroke="#14f1c7" stroke-width="1.5" opacity="0.6"/>
</svg>